HIERARCHY
ROOT hip
{
	OFFSET 0.000000 0.000000 0.000000 
	CHANNELS 6 Xposition Yposition Zposition Xrotation Zrotation Yrotation
	JOINT abdomen
	{
		OFFSET 0.000000 3.402643 0.000000 
		CHANNELS 3 Xrotation Zrotation Yrotation
		JOINT chest
		{
			OFFSET 0.000000 8.438565 -0.680529 
			CHANNELS 3 Xrotation Zrotation Yrotation
			JOINT neck
			{
				OFFSET 0.000000 10.207942 -0.272212 
				CHANNELS 3 Xrotation Zrotation Yrotation
				JOINT head
				{
					OFFSET 0.000000 3.130431 0.000000 
					CHANNELS 3 Xrotation Zrotation Yrotation
					End Site
					{
						OFFSET 0.000000 3.130435 0.000000 
					}
				}
			}
			JOINT lCollar
			{
				OFFSET 3.470700 6.669187 -0.816635 
				CHANNELS 3 Yrotation Zrotation Xrotation
				JOINT lShldr
				{
					OFFSET 3.198488 0.000000 0.000000 
					CHANNELS 3 Zrotation Yrotation Xrotation
					JOINT lForeArm
					{
						OFFSET 10.139888 0.000000 0.000000 
						CHANNELS 3 Yrotation Zrotation Xrotation
						JOINT lHand
						{
							OFFSET 8.370511 0.000000 0.000000 
							CHANNELS 3 Zrotation Yrotation Xrotation
							End Site
							{
								OFFSET 4.083176 0.000000 0.000000 
							}
						}
					}
				}
			}
			JOINT rCollar
			{
				OFFSET -3.470700 6.669187 -0.816635 
				CHANNELS 3 Yrotation Zrotation Xrotation
				JOINT rShldr
				{
					OFFSET -3.198488 0.000000 0.000000 
					CHANNELS 3 Zrotation Yrotation Xrotation
					JOINT rForeArm
					{
						OFFSET -10.139888 0.000000 0.000000 
						CHANNELS 3 Yrotation Zrotation Xrotation
						JOINT rHand
						{
							OFFSET -8.370511 0.000000 0.000000 
							CHANNELS 3 Zrotation Yrotation Xrotation
							End Site
							{
								OFFSET -4.083176 0.000000 0.000000 
							}
						}
					}
				}
			}
		}
	}
	JOINT lThigh
	{
		OFFSET 5.308129 -1.633274 1.361059 
		CHANNELS 3 Xrotation Zrotation Yrotation
		JOINT lShin
		{
			OFFSET -2.041588 -20.007561 0.000000 
			CHANNELS 3 Xrotation Zrotation Yrotation
			JOINT lFoot
			{
				OFFSET 0.000000 -19.190928 -1.224953 
				CHANNELS 3 Xrotation Yrotation Zrotation
				End Site
				{
					OFFSET 0.000000 -2.449906 4.627600 
				}
			}
		}
	}
	JOINT rThigh
	{
		OFFSET -5.308129 -1.633274 1.361059 
		CHANNELS 3 Xrotation Zrotation Yrotation
		JOINT rShin
		{
			OFFSET 2.041588 -20.007561 0.000000 
			CHANNELS 3 Xrotation Zrotation Yrotation
			JOINT rFoot
			{
				OFFSET 0.000000 -19.190928 -1.224953 
				CHANNELS 3 Xrotation Yrotation Zrotation
				End Site
				{
					OFFSET 0.000000 -2.449906 4.627600 
				}
			}
		}
	}
}
MOTION
Frames: 18
Frame Time: 0.016667
-0.959919 46.061287 1.138199 10.023400 -3.894900 -4.955830 -21.585699 -0.206683 1.562340 17.196199 -1.472070 0.740697 9.022273 0.977677 -42.997028 19.621264 -5.698859 12.188614 2.000000 -2.000000 0.000000 -86.048798 -6.769960 143.929001 28.906601 -0.334531 0.066146 0.051512 -0.046470 -153.757996 -2.034810 1.958259 0.001060 -92.703300 -170.906998 0.377246 -34.521801 0.327491 0.077483 -0.058591 0.036434 -150.046997 -26.516850 -2.291978 1.170023 33.290352 1.995395 2.733112 -16.557604 3.619053 -0.288897 0.472317 8.891815 -0.966606 23.782265 -3.362635 -1.698891 22.925640 6.967414 -0.864874 
-0.900117 46.416042 2.187348 9.958870 -3.376210 -4.899220 -21.075100 -1.416590 1.979510 17.701700 -2.779750 0.773172 9.292694 1.200147 -42.867462 20.067097 -5.642174 12.316463 2.000000 -2.000000 0.000000 -83.862801 -8.838980 144.597000 27.471001 -0.336149 0.063127 0.050750 -0.043873 -152.791000 -2.034810 1.958259 0.001060 -90.565300 -172.289993 -2.187620 -33.711300 0.328575 0.075882 -0.057884 0.033257 -148.884995 -24.051998 -2.930633 1.852769 30.649422 2.038585 2.599864 -15.502327 3.844744 -0.178841 -4.288295 7.969554 -2.893538 33.922913 -2.823810 -2.449986 24.850098 2.914340 0.360055 
-0.851350 46.824551 3.129989 9.654200 -3.234880 -4.720130 -21.355101 -1.543120 1.085320 17.048700 -1.949470 0.314724 9.862309 -0.076574 -43.339046 19.341228 -6.085526 12.586328 2.000000 -2.000000 0.000000 -83.647102 -8.488390 144.098007 26.269800 -0.337444 0.060570 0.049631 -0.039728 -151.257996 -2.034810 1.958259 0.001060 -91.121696 -171.626007 -2.013520 -33.652699 0.328653 0.075765 -0.058304 0.035181 -149.587997 -21.642866 -3.042611 2.702568 28.300415 2.070468 2.434833 -13.860047 2.783247 -0.410899 -9.338667 7.048077 -5.785117 45.290733 -2.166169 -3.178074 22.947969 1.128516 0.776292 
-0.786255 47.317230 3.977345 9.098910 -2.256430 -5.087950 -20.952600 -2.154430 1.180010 16.980200 -1.998060 0.281029 9.800444 0.090118 -43.696327 19.845554 -6.170932 12.560985 2.000000 -2.000000 0.000000 -82.778999 -9.884000 144.550003 24.951500 -0.338804 0.057734 0.048355 -0.034353 -149.285004 -2.034810 1.958259 0.001060 -90.604202 -171.794006 -2.960370 -34.726898 0.327213 0.077886 -0.058998 0.038136 -150.671997 -18.940727 -3.853829 3.844305 25.371908 2.090625 2.248830 -10.761083 1.251865 -0.620275 -14.828069 4.661291 -8.024694 57.961346 -1.345541 -3.832597 20.518476 3.832339 -0.266537 
-0.766057 47.952621 4.778844 8.293650 -1.439870 -5.141690 -20.827000 -2.239980 0.590377 16.620600 -0.945032 -0.032644 10.160213 -0.183829 -44.335175 19.790405 -6.286970 12.777754 2.000000 -2.000000 0.000000 -83.081299 -10.207100 144.110992 23.994400 -0.339750 0.055656 0.047290 -0.029073 -147.360992 -2.034810 1.958259 0.001060 -91.229202 -171.619003 -3.292840 -34.570702 0.327425 0.077579 -0.058831 0.037445 -150.417999 -15.591211 -4.583459 4.951995 21.212965 2.079000 1.953806 -6.393491 -0.019913 -0.446342 -20.046276 2.101600 -10.415757 70.199181 -0.361270 -4.346534 19.387432 4.940752 -0.631597 
-0.763979 48.656578 5.560246 7.529840 -0.687381 -5.432760 -20.184601 -2.434550 0.488558 17.236200 -0.506960 -0.126839 10.106926 -0.762121 -44.875069 19.771828 -6.724711 12.778732 2.000000 -2.000000 0.000000 -83.268501 -11.133000 145.078995 24.365499 -0.339387 0.056463 0.046693 -0.025624 -146.110992 -2.034810 1.958259 0.001060 -91.210098 -172.423004 -4.404090 -33.750401 0.328524 0.075959 -0.058080 0.034166 -149.216995 -11.896945 -5.313440 5.333009 16.134365 1.954835 1.633953 -1.062885 -0.546632 0.111838 -24.897003 -0.608059 -12.338179 81.260918 0.659227 -4.662997 20.452667 4.151881 -0.429624 
-0.744713 49.289387 6.410614 6.865420 -0.416911 -5.216280 -19.959801 -2.507430 0.182744 17.294901 -0.233995 -0.289399 10.132964 0.357219 -44.970207 20.183495 -6.260174 12.874962 2.000000 -2.000000 0.000000 -83.660301 -11.356000 145.880005 24.795200 -0.338961 0.057396 0.046737 -0.025893 -146.209000 -2.034810 1.958259 0.001060 -91.268898 -172.307999 -5.507900 -33.027699 0.329473 0.074520 -0.057304 0.030389 -147.839996 -8.384667 -5.746189 5.164977 11.732729 1.822926 1.307496 3.739733 -0.384565 0.673031 -28.537165 -3.090569 -14.123718 89.073982 1.465645 -4.808439 22.487499 6.607509 -1.338030 
-0.763049 49.828217 7.256746 6.455080 -0.077630 -4.657230 -19.643900 -2.408990 -0.166953 17.558500 0.321825 -0.456308 10.180308 1.150204 -45.038319 20.589121 -5.818275 12.903220 2.000000 -2.000000 0.000000 -84.745697 -11.402800 146.906006 25.996401 -0.337732 0.059985 0.047451 -0.029933 -147.673996 -2.034810 1.958259 0.001060 -91.649902 -172.018005 -6.553560 -32.832401 0.329726 0.074128 -0.056880 0.028104 -147.009995 -5.002274 -6.240750 4.752998 6.815356 1.527683 0.927015 8.797965 0.220197 1.272335 -31.691549 -5.195879 -15.369338 93.260300 1.986006 -4.875013 20.371237 10.856229 -2.487763 
-0.770639 50.159771 8.094294 6.064650 0.466127 -4.354700 -19.497400 -2.380010 -0.089947 17.626699 0.692453 -0.435828 9.616140 -0.570679 -44.408310 19.498562 -6.576122 12.531751 2.000000 -2.000000 0.000000 -85.626198 -11.331900 148.158005 27.197599 -0.336449 0.062547 0.048408 -0.034594 -149.373001 -2.034810 1.958259 0.001060 -91.698997 -171.492996 -7.746300 -32.461300 0.330204 0.073383 -0.056729 0.027242 -146.697006 -2.398828 -7.074428 4.931690 3.421736 1.545763 0.533096 13.943285 0.999267 1.343356 -34.421772 -6.389788 -15.349981 94.554649 2.183167 -4.919871 19.175066 12.806394 -2.813395 
-0.841536 50.326702 8.962871 5.712940 0.242928 -3.129950 -19.462400 -2.121810 -0.514028 17.626301 1.209350 -0.608762 9.471545 -0.527232 -43.858940 19.277166 -6.403621 12.384811 2.000000 -2.000000 0.000000 -86.672699 -10.234900 149.746994 29.326500 -0.334044 0.067021 0.050216 -0.041949 -152.078003 -2.034810 1.958259 0.001060 87.969101 -9.510730 171.352997 -32.139000 0.330614 0.072733 -0.056547 0.026163 -146.307007 -0.940059 -7.219271 3.972395 2.944048 2.054967 0.353348 15.069103 1.567986 1.044899 -35.890663 -6.313759 -15.982998 92.844666 2.052659 -4.951519 17.288162 11.149570 -1.896119 
-0.922609 50.348747 9.865440 5.439470 -0.126381 -2.131200 -19.263201 -1.846000 -0.668565 17.870199 1.492500 -0.646171 9.051331 0.288256 -43.520023 19.730593 -6.144982 12.195625 2.000000 -2.000000 0.000000 -87.309097 -10.046500 151.113998 30.420200 -0.332744 0.069284 0.051300 -0.045763 -153.494003 -2.034810 1.958259 0.001060 88.076103 -9.936690 169.770996 -31.641001 0.331242 0.071724 -0.056296 0.024597 -145.740005 -0.724486 -6.913853 3.190373 5.170658 2.202691 0.537124 13.809190 1.702978 0.849553 -36.830997 -5.438597 -16.282190 88.458130 1.650164 -4.917155 14.257223 8.550619 -0.713401 
-0.980328 50.195728 10.773538 5.214980 -0.418184 -0.790191 -19.223301 -1.827660 -0.758745 17.802000 1.307080 -0.687868 8.753688 -0.974978 -42.499657 18.740839 -6.539397 11.910127 2.000000 -2.000000 0.000000 -87.212303 -10.279500 151.787994 29.795200 -0.333492 0.067994 0.051339 -0.045894 -153.542999 -2.034810 1.958259 0.001060 88.583199 -10.284000 167.944000 -30.683901 0.332424 0.069770 -0.056037 0.022866 -145.115005 -1.045329 -6.657529 2.015998 8.707840 2.428059 0.805334 10.472176 1.739528 0.665117 -36.849094 -4.497869 -16.562233 81.464066 1.016316 -4.833843 10.551068 6.460510 0.056751 
-1.076434 49.913559 11.710518 5.195340 -0.175059 -0.416338 -19.105900 -1.738970 -0.689261 18.270700 1.541740 -0.647453 8.803097 -0.243792 -42.287148 18.861261 -6.112730 11.947053 2.000000 -2.000000 0.000000 -87.270302 -10.202300 151.339005 29.404600 -0.333952 0.067184 0.050645 -0.043504 -152.654007 -2.034810 1.958259 0.001060 88.836098 -10.045800 166.313995 -29.433901 0.333918 0.067188 -0.055560 0.019261 -143.815994 -1.263801 -6.775886 2.076442 11.509818 2.481403 1.035201 9.316739 0.647930 0.673381 -36.588577 -3.094918 -15.438509 72.070038 0.158816 -4.578570 8.081312 4.447633 0.503239 
-1.209635 49.574913 12.776832 5.342100 0.612562 0.555427 -19.370199 -2.034280 -0.920263 18.123800 1.765990 -0.797638 8.942595 -0.312086 -42.676376 18.963976 -6.278340 12.097719 2.000000 -2.000000 0.000000 -86.965797 -9.501830 150.067993 28.389000 -0.335123 0.065062 0.049483 -0.039145 -151.042999 -2.034810 1.958259 0.001060 89.225998 -10.277200 165.024002 -28.379200 0.335134 0.064985 -0.055286 0.016842 -142.947006 -1.318434 -7.363831 1.887456 13.984021 2.643689 1.186292 7.291401 -1.054113 0.572671 -34.805859 -2.334863 -14.649769 59.828484 -0.778958 -4.132134 5.664753 1.245717 0.782448 
-1.365549 49.253036 13.872017 5.840650 0.952064 0.995971 -19.675200 -2.132790 -0.793248 18.172701 1.727020 -0.755448 8.859946 0.922779 -42.819160 19.470776 -5.886330 12.178364 2.000000 -2.000000 0.000000 -86.426201 -9.281200 148.123993 26.592100 -0.337102 0.061259 0.048262 -0.033926 -149.128998 -2.034810 1.958259 0.001060 89.840202 -10.332100 163.412994 -27.607700 0.335998 0.063359 -0.055101 0.014992 -142.283005 -1.700336 -7.479298 2.157417 16.453693 2.739189 1.355496 5.626620 -2.147945 0.401155 -31.975336 -0.787745 -13.850571 44.167103 -1.700247 -3.363916 3.166154 -0.629819 0.690483 
-1.490874 48.939274 15.070890 6.358920 1.242310 1.300720 -20.241301 -2.065160 -0.779244 17.928400 1.804740 -0.737087 8.812543 0.805960 -43.481903 19.506493 -6.160239 12.274554 2.000000 -2.000000 0.000000 -86.335602 -7.858870 146.401001 25.420200 -0.338328 0.058746 0.048085 -0.033097 -148.826004 -2.034810 1.958259 0.001060 89.782402 -11.319400 163.820999 -28.076500 0.335476 0.064348 -0.055341 0.017359 -143.132996 -1.832855 -7.635837 2.362217 18.629730 2.834044 1.493561 4.387523 -2.554012 0.233008 -27.527536 0.732608 -12.663069 26.011543 -2.178060 -2.253765 5.134174 -0.398177 0.526339 
-1.642048 48.601929 16.372330 6.975760 1.706030 1.527270 -20.088499 -2.087800 -0.338769 18.964300 1.474040 -0.529239 9.209054 0.618644 -43.876820 19.670855 -6.156438 12.471260 2.000000 -2.000000 0.000000 -85.824997 -8.146250 144.272995 23.545200 -0.340182 0.054675 0.047395 -0.029637 -147.565994 -2.034810 1.958259 0.001060 90.134201 -11.408200 164.231003 -29.228800 0.334157 0.066761 -0.055623 0.019776 -144.001999 -1.950598 -7.874570 2.747380 20.569403 2.897428 1.603841 3.596888 -3.036543 0.143112 -21.944893 1.760782 -10.797396 8.409568 -1.517061 -1.121192 9.461831 -1.455373 0.260041 
-1.776472 48.331734 17.751169 7.182730 2.131590 2.202340 -20.109800 -2.125620 -0.105900 19.394300 1.113050 -0.422968 9.200847 0.696030 -44.443398 20.012041 -6.330109 12.544733 2.000000 -2.000000 0.000000 -85.549797 -7.503900 143.139008 22.441700 -0.341211 0.052251 0.047163 -0.028373 -147.106995 -2.034810 1.958259 0.001060 90.251900 -11.702400 164.748001 -29.883101 0.333387 0.068119 -0.055737 0.020672 -144.324005 -1.503903 -7.938749 2.779505 22.245813 2.989604 1.685170 3.897900 -4.490179 0.201691 -18.752218 2.496434 -10.004355 1.052046 -1.871453 -0.217106 13.541901 -3.466253 1.424610 
